<svg width="800" height="600" xmlns="http://www.w3.org/2000/svg">
 <g id="Layer_1">
  <title>Layer 1</title>
  <path d="m162,150c-1,0 -6,0 -15,0c-11,0 -25,0 -39,0c-10,0 -17.82443,-0.90211 -19,1c-0.52573,0.85065 0,2 0,3c0,1 -0.6935,3.04832 0,8c1.00976,7.20975 4.59367,16.91603 6,29c1.73784,14.93251 2.70631,29.07677 1,48c-1.00406,11.13516 -3.21657,19.13748 -5,27c-1.39904,6.16788 -2.69125,12.07181 -4,17c-0.81165,3.05634 -2.41422,5.58578 -1,7c0.70711,0.70709 2.0535,0.4595 4,0c2.17625,-0.51373 4,-1 6,-1c1,0 2,0 5,0c1,0 2,0 3,0c1,0 2,0 3,0c1,0 2,0 3,0c3,0 6,0 9,0c2,0 3,0 4,0c1,0 2,0 4,0l3,0l2,0" id="svg_5" stroke="#000" fill="none"/>
  <path d="m147,230c-1,0 -7,0 -14,0c-9,0 -16,0 -23,0c-1,0 -2,0 -3,0c-1,0 -2,0 -3,0l-1,0l-1,0" id="svg_6" stroke="#000" fill="none"/>
  <path d="m205,214c-1,0 0.37877,1.86467 2,7c5.25769,16.65402 3.89163,25.25056 6,32c1.33345,4.26871 2.14935,5.52573 3,5c1.90211,-1.17557 2.13182,-6.74823 10,-15c6.36227,-6.67244 14.90294,-9.85852 20,-10c7.06834,-0.1962 12.03552,8.50424 15,13c1.55704,2.36128 1.29291,4.29289 2,5c0.70709,0.70711 3.51929,-2.5582 6,-6c2.6149,-3.62799 7.88855,-11.19409 13,-14c3.92029,-2.15204 5.29871,-3.05147 7,-2c3.80423,2.35114 5.65457,11.78423 8,20c2.7995,9.80627 4,16 5,19l0,1" id="svg_7" stroke="#000" fill="none"/>
  <path d="m325,237c2,1 7.63904,7.81415 12,24c5.86932,21.78418 16,61 20,79c2,9 2.70709,14.29291 2,15c-0.70709,0.70709 -3.33673,-0.84866 -5,-5c-5.05862,-12.62579 -11.47421,-32.46088 -14,-50c-3.56348,-24.74472 3.4451,-38.52179 11,-46c6.55237,-6.48586 10.64749,-8.97252 15,-10c1.9465,-0.4595 4.76859,0.6129 7,6c3.1557,7.6185 5.34286,16.7319 2,24c-3.85245,8.37607 -12.04834,7.69351 -17,7c-7.20975,-1.00977 -11,-6 -11,-7l0,-2l0,-1l2,-1" id="svg_8" stroke="#000" fill="none"/>
  <path d="m444,182c0,1 0.46985,7.02213 0,12c-2.00888,21.28296 -8.99658,37.87593 -10,50c-0.8248,9.96593 0,13 0,14l1,0l2,0l5,-5" id="svg_9" stroke="#000" fill="none"/>
  <path stroke="#000" d="m466,222c-7,-1 -18,-1 -29,-1l-7,-2l-3,0" id="svg_10" fill="none"/>
  <path d="m515,191c0,2 0.13007,9.36409 3,15c3.90356,7.66566 13.61407,19.01607 23,22c9.71875,3.08972 22.99066,4.91331 34,-2c10.19769,-6.40364 15,-18 15,-26c0,-4 -1,-4 -2,-4c-1,0 -7.802,11.69757 -15,32c-10.14655,28.61899 -18,63 -26,104c-8,41 -10.78851,74.69391 -21,94c-7.30341,13.80798 -19.95331,16.49902 -28,17c-6.98648,0.43497 -16.94586,-9.03027 -22,-18c-3.95776,-7.02396 -7,-10 -7,-12l0,-1l0,-1l1,0" id="svg_11" stroke="#000" fill="none"/>
  <path d="m665,159c-1,5 -1.59998,15.04811 -3,25c-1.5575,11.07132 -3,26 -5,34l0,5l-1,3l0,1" id="svg_12" stroke="#000" fill="none"/>
  <polyline stroke-linecap="round" id="svg_13" points="662,278 663,278 " stroke="#000" fill="none"/>
 </g>
</svg>